<svg version="1.2" xmlns="http://www.w3.org/2000/svg" viewBox="0 0 1640 664" width="2717" height="1100">
	<style>
		.s0 { fill: #b68cdc } 
	</style>
	<path id="DT" class="s0" aria-label="DT"  d="m645.1 423.6l-35.4-0.1v-108.7h30.2q16.2 0 27.4 4.9 11.3 4.8 18.3 13.1 7.1 8.1 10.2 18 3.3 9.9 3.3 19.8 0 12.1-4.3 22-4.2 9.8-11.9 16.7-7.5 6.9-17.2 10.6-9.8 3.6-20.6 3.6zm-19.8-93.6v78.5h16.8q11.9 0 21-4.5 9.2-4.5 14.4-13.2 5.4-8.7 5.4-21.2 0-10.2-3.4-17.5-3.3-7.5-8.9-12.3-5.5-5-12.4-7.4-6.9-2.4-14.1-2.4zm87.6 0v-15.1h72.4v15.1h-28.8v93.6h-15.7v-93.6z"/>
</svg>